<svg id="visual" viewBox="0 0 2000 300" width="2000" height="300" xmlns="http://www.w3.org/2000/svg" xmlns:xlink="http://www.w3.org/1999/xlink" version="1.1"><path d="M0 236L47.7 231C95.3 226 190.7 216 285.8 215.8C381 215.7 476 225.3 571.2 229.7C666.3 234 761.7 233 857 231.2C952.3 229.3 1047.7 226.7 1143 228.8C1238.3 231 1333.7 238 1428.8 236C1524 234 1619 223 1714.2 215.8C1809.3 208.7 1904.7 205.3 1952.3 203.7L2000 202L2000 301L1952.3 301C1904.7 301 1809.3 301 1714.2 301C1619 301 1524 301 1428.8 301C1333.7 301 1238.3 301 1143 301C1047.7 301 952.3 301 857 301C761.7 301 666.3 301 571.2 301C476 301 381 301 285.8 301C190.7 301 95.3 301 47.7 301L0 301Z" fill="#ebf7fd" stroke-linecap="round" stroke-linejoin="miter"></path></svg>